<svg xmlns="http://www.w3.org/2000/svg" width="243" height="48" viewBox="0 0 240 48">
    <g fill="none" fill-rule="evenodd">
        <g fill="#ff4f00" fill-rule="nonzero">
            <g>
                <g>
                    <g>
                        <path d="M17.406.613c-.14 1.81-.21 3.43-.21 4.86 0 .884.03 1.58.088 2.084h-.68c-.477-2.24-1.204-3.846-2.18-4.817-.977-.975-2.07-1.463-3.28-1.463h-.383c-.535 0-.924.042-1.169.127-.25.085-.418.25-.505.494-.088.238-.131.638-.131 1.2v7.404h.296c1.03 0 1.907-.394 2.634-1.183.732-.789 1.198-1.665 1.395-2.63h.68c-.058.806-.087 1.711-.087 2.715v1.387c0 .988.061 2.358.183 4.111h-.689c-.174-1.1-.633-2.011-1.377-2.732-.739-.726-1.652-1.09-2.739-1.09h-.296v6.656c0 .812.084 1.402.253 1.77.168.364.474.61.915.74.448.126 1.154.188 2.12.188v.664c-2.669-.057-4.704-.085-6.105-.085-.93 0-2.226.017-3.89.05l-1.42.035v-.579c.633-.04 1.092-.116 1.377-.23.29-.119.486-.343.585-.672.098-.323.148-.854.148-1.591V3.676c0-.731-.055-1.262-.166-1.59-.11-.33-.302-.551-.575-.665-.28-.119-.736-.195-1.37-.23V.613C3.125.67 6.584.698 11.206.698c2.907 0 4.973-.028 6.2-.085zM31.42 3.098c2.116 0 3.97.352 5.563 1.055 1.593.704 2.829 1.736 3.706 3.098.878 1.362 1.317 2.987 1.317 4.877 0 1.85-.447 3.483-1.343 4.902-.9 1.418-2.157 2.519-3.767 3.302-1.61.777-3.445 1.166-5.503 1.166-2.116 0-3.967-.352-5.554-1.055-1.593-.704-2.829-1.734-3.707-3.09-.883-1.362-1.325-2.987-1.325-4.876 0-1.856.45-3.493 1.352-4.911.9-1.418 2.156-2.516 3.767-3.294 1.61-.783 3.441-1.174 5.494-1.174zm-.114.519c-.912 0-1.715.372-2.407 1.115-.691.743-1.223 1.776-1.595 3.098-.378 1.322-.567 2.831-.567 4.527 0 1.72.212 3.234.636 4.545.425 1.31 1 2.318 1.727 3.021.72.704 1.526 1.056 2.416 1.056.906 0 1.706-.372 2.398-1.115.691-.743 1.226-1.773 1.604-3.09.372-1.322.558-2.834.558-4.536 0-1.713-.212-3.225-.636-4.536-.425-1.316-.997-2.326-1.718-3.03-.721-.703-1.526-1.055-2.416-1.055zm33.286-.11v.578c-.628.13-1.087.31-1.378.536-.285.222-.476.56-.575 1.013-.1.448-.149 1.146-.149 2.094v13.37c-.476-.04-.83-.06-1.063-.06-.262 0-.628.02-1.1.06L48.469 7.813v9.055c0 .93.084 1.626.253 2.085.169.465.48.809.933 1.03.453.221 1.154.4 2.102.536v.579c-.965-.057-2.172-.085-3.62-.085-1.046 0-1.866.028-2.459.085v-.579c.634-.136 1.093-.315 1.378-.536.291-.221.486-.559.585-1.013.098-.454.148-1.154.148-2.102V6.57c0-.732-.055-1.262-.166-1.591-.11-.33-.302-.55-.575-.664-.28-.12-.736-.196-1.37-.23v-.579c.593.057 1.413.085 2.46.085 1.622 0 3.026-.028 4.212-.085l9.461 10.528V7.728c0-.925-.084-1.62-.253-2.085-.168-.46-.48-.8-.933-1.022-.453-.227-1.157-.405-2.11-.536v-.579c.97.057 2.177.085 3.619.085 1.046 0 1.866-.028 2.46-.085zm32.58 16.059l.383.374c-.593.58-1.244.985-1.953 1.217-.715.227-1.547.34-2.494.34-1.366 0-2.424-.235-3.174-.706-.75-.47-1.215-1.276-1.396-2.417l-.444-2.893c-.198-1.35-.468-2.372-.811-3.064-.35-.698-.87-1.047-1.561-1.047h-1.335v6.656c0 .737.056 1.268.166 1.591.11.33.302.553.576.672.279.114.735.19 1.369.23v.579c-1.146-.057-2.797-.085-4.953-.085-2.39 0-4.148.028-5.276.085v-.579c.633-.04 1.093-.116 1.378-.23.284-.119.476-.343.575-.672.099-.323.148-.854.148-1.591V3.676c0-.731-.052-1.262-.157-1.59-.11-.33-.305-.551-.584-.665-.273-.119-.727-.195-1.36-.23V.613c1.128.057 2.828.085 5.101.085l3.41-.034c.395-.017.849-.026 1.36-.026 3.006 0 5.244.414 6.715 1.243 1.47.828 2.206 2.093 2.206 3.796 0 1.446-.552 2.68-1.657 3.702-1.104 1.021-2.962 1.648-5.572 1.88 2.017.137 3.538.508 4.56 1.115 1.03.608 1.663 1.498 1.902 2.673l.619 3.013c.14.714.308 1.205.506 1.472.197.272.474.408.828.408.36 0 .669-.124.925-.374zM85.992 1.191c-.454 0-.794.066-1.02.196-.227.136-.381.378-.463.724-.08.351-.122.873-.122 1.566v7.114h.803c1.407 0 2.366-.417 2.877-1.25.512-.84.768-2.023.768-3.55 0-1.582-.221-2.78-.663-3.591-.448-.806-1.174-1.209-2.18-1.209zm29.937 17.473c.593 1.197 1.177 1.815 1.753 1.855v.579c-1.006-.057-2.46-.085-4.36-.085-2.39 0-4.148.028-5.276.085v-.579c.61-.04 1.064-.142 1.36-.306.297-.165.445-.44.445-.826 0-.346-.128-.78-.384-1.302l-1.447-3.294h-5.546c-.675 1.504-1.012 2.71-1.012 3.618 0 .771.238 1.304.715 1.6.47.3 1.151.47 2.04.51v.579c-1.482-.057-2.775-.085-3.88-.085-.93 0-1.692.028-2.285.085v-.579c.477-.08.919-.369 1.326-.868.4-.505.869-1.345 1.404-2.52l6.078-13.625c.436.034.761.051.977.051.22 0 .546-.017.976-.05l7.116 15.157zm-13.22-4.451h5.04l-2.52-5.677-2.52 5.677zm26.824-10.707c3.697 0 6.465.724 8.302 2.17 1.843 1.447 2.764 3.578 2.764 6.392 0 1.816-.45 3.402-1.352 4.758-.9 1.361-2.2 2.414-3.898 3.157-1.703.743-3.729 1.115-6.078 1.115l-2.075-.034c-1.343-.034-2.331-.051-2.965-.051-1.901 0-3.325.028-4.273.085v-.579c.634-.04 1.093-.116 1.378-.23.29-.119.485-.343.584-.672.099-.323.148-.854.148-1.591V6.57c0-.732-.055-1.262-.165-1.591-.11-.33-.303-.55-.576-.664-.279-.12-.735-.196-1.37-.23v-.579c.774.057 1.89.085 3.35.085l3-.034c1.58-.034 2.656-.05 3.226-.05zm-.148.52c-.454 0-.794.068-1.02.204-.227.13-.381.371-.463.723-.075.346-.113.865-.113 1.558v11.574c0 .698.038 1.22.113 1.566.082.346.236.587.462.723.227.137.579.205 1.056.205 1.953 0 3.316-.681 4.09-2.043.773-1.362 1.16-3.478 1.16-6.349 0-2.82-.402-4.885-1.204-6.196-.802-1.31-2.163-1.965-4.081-1.965zm31.428 14.638c.593 1.197 1.174 1.815 1.744 1.855v.579c-1.006-.057-2.456-.085-4.351-.085-2.396 0-4.157.028-5.285.085v-.579c.616-.04 1.073-.142 1.37-.306.296-.165.444-.44.444-.826 0-.346-.128-.78-.384-1.302l-1.456-3.294h-5.546c-.669 1.504-1.003 2.71-1.003 3.618 0 .771.235 1.304.706 1.6.477.3 1.16.47 2.05.51v.579c-1.483-.057-2.78-.085-3.89-.085-.924 0-1.683.028-2.276.085v-.579c.471-.08.91-.369 1.317-.868.407-.505.875-1.345 1.404-2.52l6.078-13.625c.436.034.765.051.985.051.216 0 .541-.017.977-.05l7.116 15.157zm-13.229-4.451h5.04l-2.52-5.677-2.52 5.677zm37.15 5.293l.418.375c-.558.539-1.166.945-1.823 1.217-.663.267-1.509.4-2.538.4-1.284 0-2.273-.216-2.964-.647-.692-.437-1.137-1.041-1.335-1.813l-.828-3.268c-.18-1.06-.46-1.77-.837-2.127-.372-.358-.925-.537-1.657-.537h-.506v4.92c0 .737.055 1.268.166 1.591.11.33.302.553.575.672.28.114.736.19 1.37.23v.579c-1.268-.057-3.117-.085-5.547-.085-1.976 0-3.439.028-4.386.085v-.579c.628-.04 1.087-.116 1.378-.23.285-.119.476-.343.575-.672.1-.323.148-.854.148-1.591V6.57c0-.732-.055-1.262-.165-1.591-.105-.33-.297-.55-.576-.664-.279-.12-.732-.196-1.36-.23v-.579c.947.057 2.349.085 4.203.085l3.62-.034c.418-.017.903-.025 1.455-.025 5.75 0 8.625 1.486 8.625 4.46 0 1.23-.567 2.3-1.7 3.208-1.14.908-3.053 1.478-5.739 1.71.076 0 .18.003.314.01.128.01.28.036.454.076 1.662.153 2.973.456 3.933.91.959.454 1.566 1.183 1.822 2.188l.62 2.544c.121.483.281.814.479.996.198.182.453.272.767.272.355 0 .7-.133 1.038-.4zm-10.762-15.42c-.378 0-.654.064-.828.195-.18.136-.306.377-.375.723-.07.352-.105.874-.105 1.566v5.958h.802c1.285 0 2.166-.37 2.643-1.107.47-.743.706-1.781.706-3.115 0-1.407-.218-2.462-.654-3.166-.43-.703-1.16-1.055-2.189-1.055z" transform="translate(-120 -24) translate(120 24) translate(56.979 12.021) translate(0 .838)"/>
                    </g>
                </g>
                <g transform="translate(-120 -24) translate(120 24)">
                    <path d="M23.859 1.789c12.219 0 22.16 9.968 22.16 22.221 0 12.254-9.941 22.223-22.16 22.223-12.22 0-22.16-9.97-22.16-22.223 0-12.253 9.94-22.221 22.16-22.221m0-1.533C10.775.256.17 10.89.17 24.01c0 13.12 10.605 23.755 23.689 23.755 13.083 0 23.688-10.635 23.688-23.755S36.942.256 23.86.256z"/>
                    <ellipse cx="23.859" cy="24.01" rx="1.528" ry="1.533"/>
                    <ellipse cx="9.085" cy="18.391" rx="1.019" ry="1.022"/>
                    <ellipse cx="20.293" cy="16.348" rx="1.274" ry="1.277"/>
                    <ellipse cx="32.01" cy="6.13" rx="1.528" ry="1.533"/>
                    <path d="M34.377 9.48L35.398 9.48 35.415 32.408 34.393 32.408z" transform="rotate(75.001 34.896 20.944)"/>
                    <path d="M4.5 24.01l.023-.626.028-.752c.011-.296.011-.637.078-1.014l.174-1.256c.054-.46.21-.936.324-1.457.067-.257.117-.53.205-.799l.288-.825.305-.87.405-.875c.142-.297.273-.607.431-.91l.53-.902c.335-.629.79-1.207 1.23-1.821.21-.315.469-.598.726-.887l.78-.884.878-.823.447-.417c.154-.134.322-.253.484-.382l.99-.763c.346-.236.711-.451 1.07-.68l.543-.342c.185-.107.381-.195.573-.294l1.162-.58 1.223-.472.615-.234.637-.173 1.28-.344 1.311-.22c.22-.033.437-.077.657-.103l.664-.043 1.343-.082c.866.026 1.72.026 2.61.157 1.751.22 3.437.625 4.986 1.277.397.136.766.328 1.138.504.37.18.746.342 1.088.557.35.203.695.404 1.036.604l.961.667c1.242.91 2.336 1.891 3.219 2.912.22.255.449.495.65.748l.568.756c.388.481.671.995.973 1.455.311.455.514.932.746 1.348.235.416.394.824.55 1.188.33.721.508 1.319.642 1.722l.205.618-1.475.403-.174-.575c-.114-.376-.262-.934-.551-1.609-.136-.34-.27-.725-.48-1.116-.206-.391-.378-.842-.658-1.272-.27-.435-.52-.923-.87-1.38l-.51-.722c-.181-.242-.39-.47-.589-.715-.8-.979-1.8-1.927-2.946-2.815l-.888-.654-.96-.596c-.318-.213-.669-.375-1.014-.554-.348-.176-.691-.37-1.064-.507-1.442-.658-3.055-1.088-4.689-1.34-.802-.147-1.676-.174-2.54-.223l-1.255.045-.639.023c-.212.018-.421.055-.633.082l-1.267.176-1.242.297-.62.15-.6.21-1.195.424-1.14.531c-.189.091-.383.171-.565.27l-.536.317c-.354.213-.714.413-1.058.633l-.984.718c-.161.12-.33.232-.483.358l-.447.396-.88.781-.787.844c-.26.277-.522.547-.737.85-.448.591-.912 1.148-1.257 1.758l-.547.874c-.164.295-.302.597-.449.886l-.425.854-.324.852-.308.81c-.096.264-.151.532-.225.786-.126.513-.295.985-.361 1.438l-.207 1.243c-.077.374-.087.715-.106 1.01l-.048.752-.043.624z"/>
                    <path d="M8.066 24.01l.018-.51.02-.614c.01-.242.008-.52.062-.828l.138-1.024c.043-.375.17-.764.26-1.19.055-.21.095-.433.166-.653l.233-.674.246-.711.33-.716c.114-.242.221-.496.349-.745l.43-.737c.272-.515.64-.989.999-1.49.171-.259.382-.49.591-.728l.635-.724.716-.675.364-.343c.126-.11.263-.208.395-.314l.807-.626c.282-.196.58-.372.873-.56l.443-.28c.15-.09.312-.162.468-.243l.95-.479.998-.39.503-.193.521-.144 1.047-.286 1.073-.182c.18-.03.358-.064.538-.088l.543-.037 1.103-.071c.707.02 1.401.015 2.135.12 1.438.175 2.82.503 4.093 1.032 1.267.523 2.46 1.141 3.473 1.9 1.023.742 1.923 1.545 2.652 2.38.182.208.37.405.536.612l.47.62c.32.394.556.814.805 1.192.257.373.425.764.618 1.105.194.342.327.677.456.976.274.591.423 1.082.535 1.413l.17.508-1.474.406s-.05-.162-.14-.466c-.09-.303-.21-.755-.442-1.301-.11-.276-.218-.586-.386-.903-.166-.316-.305-.681-.53-1.03-.218-.351-.419-.746-.702-1.116l-.412-.585c-.146-.196-.314-.382-.475-.58-.646-.793-1.453-1.563-2.38-2.284-.916-.738-2.007-1.348-3.175-1.88-1.167-.534-2.475-.888-3.797-1.095-.646-.12-1.361-.144-2.065-.186l-1.016.034-.518.017c-.172.016-.343.045-.514.066l-1.03.14-1.008.239-.504.12-.487.17-.972.341-.929.43c-.152.073-.31.136-.459.217l-.436.256c-.288.173-.582.333-.862.513l-.801.58c-.132.099-.269.188-.394.292l-.364.32-.719.634-.641.684c-.213.224-.426.445-.601.69-.367.48-.745.933-1.028 1.428l-.448.71c-.133.24-.246.486-.367.72l-.349.695-.266.693-.254.659c-.077.215-.123.434-.184.64-.105.418-.244.801-.298 1.17l-.172 1.013c-.064.304-.072.583-.09.824l-.04.612c-.02.333-.033.51-.033.51z"/>
                    <path d="M11.632 24.01l.012-.395c.018-.257-.008-.638.058-1.116.03-.24.065-.505.103-.794.032-.291.128-.592.197-.923.041-.163.072-.335.126-.506l.178-.524.188-.552.252-.557c.088-.188.171-.385.268-.578l.331-.575c.21-.4.493-.77.77-1.16.272-.397.625-.744.946-1.133l.554-.528c.184-.18.374-.358.586-.513l.626-.49c.218-.153.45-.29.676-.439.445-.313.955-.523 1.444-.786l.775-.308.391-.152.405-.115.815-.227.835-.146.419-.071.423-.03.847-.061c.583.014 1.09.005 1.676.085 1.128.129 2.205.38 3.202.787.992.403 1.927.882 2.723 1.47.804.575 1.511 1.2 2.086 1.85.143.162.29.316.422.477l.371.483c.252.308.439.635.635.93.368.604.658 1.154.852 1.625.216.463.336.847.425 1.106l.136.398-1.474.407-.105-.355c-.069-.231-.158-.576-.333-.993-.153-.426-.39-.924-.694-1.478-.164-.269-.316-.572-.53-.855l-.314-.448c-.112-.15-.239-.293-.36-.445-.492-.608-1.106-1.2-1.813-1.754-.7-.568-1.533-1.039-2.426-1.448-.892-.414-1.896-.691-2.905-.853-.482-.095-1.065-.115-1.573-.15l-.794.023-.398.01-.395.05-.791.103-.776.181-.388.091-.375.13-.749.258c-.472.23-.97.407-1.406.689-.223.132-.45.254-.666.392l-.62.444c-.21.14-.4.303-.585.469l-.557.485c-.325.362-.684.683-.963 1.056-.285.368-.578.716-.798 1.097l-.348.546c-.104.185-.192.374-.287.555l-.271.535-.208.534-.199.509c-.06.166-.097.334-.145.494-.082.322-.19.618-.234.903l-.137.782c-.086.473-.076.856-.106 1.111l-.03.393z"/>
                    <path d="M15.198 24.01l.006-.28c.012-.181-.01-.45.034-.79.039-.339.08-.755.201-1.219.044-.236.12-.479.21-.733.041-.128.085-.259.13-.393l.175-.397.186-.413.232-.41c.147-.287.345-.552.54-.832.19-.284.44-.533.667-.812.262-.244.508-.523.806-.75.567-.492 1.24-.89 1.949-1.243.727-.308 1.493-.594 2.299-.703.397-.092.805-.083 1.209-.128.426.005.771-.006 1.201.048.816.085 1.588.258 2.31.543.717.282 1.394.621 1.972 1.039.584.408 1.099.854 1.519 1.319.434.453.769.925 1.046 1.354.271.434.485.83.63 1.17.16.333.25.61.316.798l.1.287-1.471.413-.071-.245c-.046-.16-.106-.398-.224-.686-.103-.295-.264-.64-.471-1.022-.214-.38-.474-.803-.824-1.215-.337-.423-.758-.836-1.245-1.224-.482-.397-1.057-.73-1.675-1.018-.616-.292-1.317-.492-2.013-.61-.326-.068-.753-.086-1.1-.113-.365.02-.74-.015-1.107.05-.744.051-1.463.273-2.157.515-.677.288-1.332.62-1.896 1.053-.296.196-.542.447-.807.663-.23.252-.486.475-.684.736-.202.257-.41.501-.568.768l-.249.382-.205.39-.194.375-.15.376c-.103.243-.193.476-.25.705-.147.448-.212.853-.272 1.187-.064.334-.06.605-.082.786l-.023.28z"/>
                    <path d="M18.849 24.01v-.164c0-.107-.054-.264-.033-.464.02-.2.017-.447.083-.722.023-.14.053-.285.103-.436.043-.154.093-.312.165-.472.063-.164.14-.329.235-.494.084-.171.195-.332.308-.5.232-.334.519-.659.856-.953.335-.3.729-.552 1.152-.771.43-.198.89-.378 1.375-.457.239-.06.485-.064.729-.094l.022-.002H23.902l.042.002.085.002.17.006.338.01c.213-.01.476.06.72.105.248.046.493.1.705.195.217.09.443.157.644.264l.58.337c.194.104.342.261.507.385.158.133.324.25.443.402.254.288.508.543.661.821.166.268.334.494.41.71l.283.664-1.469.423-.16-.51c-.033-.172-.149-.347-.25-.566-.088-.228-.268-.434-.437-.682-.077-.131-.2-.23-.311-.348-.12-.108-.22-.253-.366-.346l-.432-.318c-.151-.104-.327-.172-.496-.265-.17-.103-.346-.156-.524-.21-.184-.054-.345-.14-.584-.155-.21-.03-.421-.058-.633-.086-.208.004-.42-.017-.629.014-.423.021-.835.137-1.235.27-.391.153-.77.34-1.1.58-.333.234-.629.502-.875.79-.122.145-.244.285-.34.437-.105.145-.197.293-.272.442-.085.145-.154.29-.21.433-.063.14-.117.275-.153.407-.093.261-.135.495-.175.69-.041.195 0 .355-.016.46-.01.11.026.166.026.166z"/>
                </g>
            </g>
        </g>
    </g>
</svg>
