<?xml version="1.0" encoding="iso-8859-1"?>
<!-- Generator: Adobe Illustrator 19.0.0, SVG Export Plug-In . SVG Version: 6.00 Build 0)  -->
<svg version="1.1" id="Layer_1" xmlns="http://www.w3.org/2000/svg" xmlns:xlink="http://www.w3.org/1999/xlink" x="0px" y="0px"
	 viewBox="0 0 512 512" style="enable-background:new 0 0 512 512;" xml:space="preserve">
<path style="fill:#ff4f00;" d="M256,512C114.842,512,0,397.158,0,256C0,114.84,114.842,0,256,0c141.157,0,256,114.84,256,256
	C512,397.158,397.157,512,256,512z M256,37.427C135.479,37.427,37.427,135.479,37.427,256S135.479,474.573,256,474.573
	S474.573,376.521,474.573,256S376.521,37.427,256,37.427z"/>
<g>
	<path style="fill:#ff4f00;" d="M256,355.069c28.838,0,54.837-12.386,72.959-32.118l16.255-23.893
		c6.313-13.027,9.855-27.637,9.855-43.058H256V355.069z"/>
	<path style="fill:#ff4f00;" d="M156.931,256H256v-99.069C201.374,156.931,156.931,201.374,156.931,256z"/>
</g>
<g>
	<path style="fill:#ff4f00;" d="M120.238,355.856c-2.679,0-5.31-1.287-6.923-3.673C94.054,323.696,83.873,290.436,83.873,256
		c0-94.911,77.215-172.128,172.127-172.128c39.052,0,77.322,13.492,107.757,37.992c3.593,2.891,4.159,8.145,1.27,11.737
		c-2.892,3.592-8.145,4.161-11.737,1.269c-27.481-22.12-62.032-34.302-97.29-34.302c-85.704,0-155.431,69.726-155.431,155.432
		c0,31.091,9.19,61.116,26.576,86.831c2.582,3.819,1.579,9.009-2.239,11.591C123.473,355.39,121.847,355.856,120.238,355.856z"/>
	<path style="fill:#ff4f00;" d="M256,428.127c-37.867,0-73.817-12.11-103.963-35.022c-3.671-2.789-4.384-8.026-1.595-11.697
		c2.789-3.671,8.026-4.384,11.697-1.595c27.216,20.685,59.672,31.618,93.861,31.618c85.704,0,155.431-69.727,155.431-155.431
		c0-29.791-8.489-58.754-24.55-83.76c-2.491-3.879-1.367-9.043,2.512-11.536c3.879-2.492,9.043-1.367,11.536,2.512
		c17.792,27.703,27.198,59.786,27.198,92.782C428.127,350.911,350.91,428.127,256,428.127z"/>
</g>
<path style="fill:#ff4f00;" d="M352.726,302.698c0.017-0.032,0.029-0.066,0.046-0.097c0.402-0.833,0.795-1.671,1.177-2.515
	c0.17-0.376,0.331-0.755,0.496-1.132c0.203-0.461,0.405-0.923,0.601-1.387c0.225-0.532,0.441-1.067,0.656-1.602
	c0.117-0.29,0.236-0.581,0.349-0.874c0.253-0.639,0.494-1.281,0.733-1.924c0.06-0.162,0.119-0.324,0.179-0.486
	c0.274-0.749,0.539-1.5,0.795-2.253c0.003-0.009,0.007-0.019,0.01-0.028c2.283-6.715,3.876-13.615,4.774-20.665
	c0.007-0.052,0.013-0.104,0.02-0.156c0.101-0.809,0.196-1.622,0.278-2.435c0.019-0.171,0.033-0.344,0.051-0.515
	c0.071-0.719,0.136-1.439,0.193-2.162c0.023-0.305,0.042-0.611,0.063-0.917c0.042-0.611,0.085-1.222,0.117-1.834
	c0.026-0.485,0.041-0.972,0.061-1.458c0.018-0.454,0.039-0.908,0.052-1.363c0.026-0.961,0.039-1.924,0.039-2.892
	c0-18.509-4.707-35.94-12.984-51.159c-18.212-33.483-53.712-56.258-94.433-56.258l0,0h-0.001
	c-50.901,0-93.646,35.587-104.661,83.188c-1.803,7.789-2.756,15.9-2.756,24.23c0,0.967,0.014,1.93,0.04,2.892
	c0.012,0.455,0.035,0.909,0.052,1.363c0.019,0.486,0.035,0.974,0.06,1.458c0.032,0.613,0.075,1.224,0.117,1.834
	c0.021,0.305,0.04,0.612,0.063,0.917c0.056,0.722,0.122,1.441,0.193,2.162c0.017,0.171,0.032,0.344,0.05,0.515
	c0.083,0.814,0.177,1.626,0.279,2.435c0.007,0.051,0.013,0.104,0.02,0.156c1,7.856,2.865,15.527,5.583,22.961
	c0.055,0.151,0.111,0.302,0.167,0.452c0.243,0.654,0.49,1.309,0.746,1.96c0.107,0.273,0.218,0.544,0.327,0.816
	c0.224,0.555,0.446,1.11,0.68,1.661c0.179,0.424,0.365,0.844,0.549,1.266c0.183,0.419,0.361,0.837,0.549,1.253
	c0.376,0.834,0.764,1.66,1.161,2.481c0.019,0.038,0.036,0.077,0.053,0.116c0.011,0.023,0.026,0.045,0.038,0.068
	c4.577,9.425,10.493,18.084,17.498,25.729c0.029,0.033,0.053,0.068,0.085,0.101c0.272,0.296,0.551,0.583,0.826,0.876
	c0.255,0.272,0.509,0.544,0.767,0.814c0.341,0.356,0.687,0.707,1.032,1.057c0.298,0.303,0.595,0.604,0.896,0.903
	c0.307,0.304,0.617,0.604,0.927,0.905c0.367,0.355,0.737,0.708,1.109,1.058c0.247,0.233,0.494,0.464,0.745,0.693
	c0.474,0.437,0.953,0.871,1.436,1.301c0.15,0.134,0.301,0.268,0.452,0.401c18.931,16.676,43.755,26.81,70.905,26.813
	c0.004,0,0.009,0,0.013,0h0l0,0c0.004,0,0.009,0,0.013,0c26.236-0.003,50.298-9.466,68.972-25.149
	c0.001-0.001,0.003-0.003,0.006-0.004c0.646-0.542,1.284-1.092,1.919-1.65c0.159-0.14,0.319-0.283,0.48-0.425
	c0.472-0.421,0.939-0.844,1.405-1.273c0.258-0.239,0.518-0.48,0.774-0.721c0.361-0.339,0.72-0.681,1.074-1.025
	c0.322-0.311,0.642-0.622,0.959-0.937c0.288-0.285,0.573-0.573,0.857-0.861c0.358-0.364,0.718-0.729,1.072-1.099
	c0.24-0.249,0.475-0.503,0.712-0.756c0.289-0.306,0.582-0.609,0.867-0.919c0.031-0.035,0.058-0.072,0.089-0.107
	c7.004-7.647,12.921-16.307,17.498-25.734C352.705,302.736,352.716,302.718,352.726,302.698z M346.721,256
	c0,1.491-0.041,2.972-0.113,4.446c-0.004,0.106-0.008,0.21-0.013,0.315c-0.076,1.477-0.189,2.945-0.336,4.402
	c-0.006,0.057-0.011,0.115-0.017,0.171c-0.777,7.563-2.487,14.855-5.012,21.757c-0.019,0.049-0.036,0.097-0.053,0.146
	c-0.489,1.327-1.007,2.638-1.555,3.935c-0.047,0.109-0.096,0.217-0.141,0.325c-0.526,1.232-1.077,2.452-1.655,3.656
	c-0.03,0.063-0.059,0.127-0.089,0.189c-3.981,8.239-9.186,15.775-15.353,22.402c-0.887,0.951-1.785,1.888-2.708,2.797
	c-0.246,0.243-0.501,0.475-0.75,0.716c-0.875,0.843-1.76,1.675-2.664,2.48c-0.228,0.204-0.463,0.398-0.692,0.6
	c-0.968,0.844-1.949,1.672-2.951,2.472c-0.155,0.124-0.313,0.246-0.469,0.368c-1.119,0.882-2.251,1.741-3.407,2.568
	c-0.041,0.029-0.082,0.059-0.125,0.089c-15.26,10.87-33.668,16.885-52.605,16.888c-0.004,0-0.009,0-0.013,0s-0.009,0-0.013,0
	c-18.935-0.003-37.34-6.017-52.601-16.886c-0.045-0.031-0.088-0.062-0.132-0.095c-1.152-0.824-2.282-1.68-3.396-2.559
	c-0.16-0.127-0.323-0.252-0.482-0.378c-0.996-0.796-1.971-1.621-2.935-2.46c-0.235-0.205-0.474-0.405-0.707-0.612
	c-0.898-0.798-1.775-1.624-2.645-2.46c-0.255-0.247-0.519-0.486-0.771-0.736c-0.908-0.895-1.794-1.819-2.667-2.755
	c-6.181-6.633-11.394-14.178-15.382-22.427c-0.038-0.079-0.073-0.159-0.111-0.237c-0.57-1.185-1.112-2.387-1.631-3.601
	c-0.05-0.119-0.104-0.236-0.152-0.353c-0.545-1.29-1.061-2.596-1.547-3.916c-0.021-0.056-0.041-0.111-0.061-0.166
	c-2.524-6.899-4.233-14.186-5.009-21.747c-0.006-0.058-0.011-0.116-0.018-0.174c-0.147-1.457-0.258-2.924-0.335-4.4
	c-0.006-0.105-0.008-0.209-0.013-0.315c-0.071-1.474-0.112-2.954-0.112-4.446c0-15.633,3.975-30.354,10.966-43.207
	c15.381-28.278,45.363-47.514,79.755-47.514c34.391,0,64.374,19.236,79.755,47.514C342.746,225.646,346.721,240.367,346.721,256z"/>
<g style="opacity:0.1;">
	<path style="fill:#ff4f00;" d="M202.332,336.603c-0.151-0.134-0.302-0.267-0.452-0.401c-0.482-0.43-0.961-0.863-1.436-1.301
		c-0.249-0.23-0.498-0.461-0.745-0.693c-0.373-0.349-0.741-0.702-1.109-1.059c-0.311-0.301-0.62-0.6-0.927-0.905
		c-0.302-0.298-0.599-0.6-0.896-0.903c-0.346-0.35-0.691-0.701-1.032-1.057c-0.258-0.269-0.512-0.542-0.767-0.814
		c-0.275-0.293-0.554-0.58-0.826-0.876c-0.03-0.033-0.055-0.069-0.085-0.101c-7.004-7.645-12.921-16.304-17.498-25.729
		c-0.012-0.023-0.026-0.045-0.038-0.068c-0.019-0.038-0.036-0.077-0.053-0.116c-0.397-0.821-0.784-1.648-1.16-2.481
		c-0.188-0.416-0.366-0.835-0.549-1.253c-0.185-0.421-0.371-0.841-0.549-1.266c-0.234-0.552-0.456-1.106-0.68-1.661
		c-0.109-0.272-0.22-0.543-0.327-0.816c-0.256-0.651-0.504-1.305-0.746-1.96c-0.056-0.15-0.112-0.302-0.167-0.452
		c-1.45-3.966-2.649-8.001-3.612-12.093c-1.392-4.934-2.386-10.033-2.923-15.267c-0.006-0.058-0.011-0.116-0.018-0.174
		c-0.147-1.457-0.258-2.924-0.335-4.4c-0.006-0.105-0.008-0.209-0.013-0.315c-0.071-1.474-0.112-2.954-0.112-4.446
		c0-8.675,1.229-17.066,3.512-25.018c10.656-44.496,49.072-78.31,95.845-82.042c-2.851-0.228-5.728-0.357-8.636-0.357h-0.001
		c-50.901,0-93.646,35.587-104.661,83.188c-1.803,7.789-2.756,15.9-2.756,24.23c0,0.967,0.014,1.93,0.04,2.892
		c0.012,0.455,0.035,0.909,0.052,1.363c0.019,0.486,0.035,0.974,0.06,1.458c0.032,0.613,0.075,1.224,0.117,1.834
		c0.021,0.305,0.04,0.612,0.063,0.917c0.056,0.722,0.122,1.441,0.193,2.162c0.017,0.171,0.032,0.344,0.05,0.515
		c0.083,0.814,0.177,1.626,0.279,2.435c0.007,0.051,0.013,0.104,0.02,0.156c1,7.856,2.865,15.527,5.583,22.961
		c0.055,0.151,0.111,0.302,0.167,0.452c0.243,0.654,0.49,1.309,0.746,1.96c0.107,0.273,0.218,0.544,0.327,0.816
		c0.224,0.555,0.446,1.11,0.68,1.661c0.179,0.424,0.365,0.844,0.549,1.266c0.183,0.419,0.361,0.837,0.549,1.253
		c0.376,0.834,0.764,1.66,1.161,2.481c0.019,0.038,0.036,0.077,0.053,0.116c0.011,0.023,0.026,0.045,0.038,0.068
		c4.577,9.425,10.493,18.084,17.498,25.729c0.029,0.033,0.053,0.068,0.085,0.101c0.272,0.296,0.551,0.583,0.826,0.876
		c0.255,0.272,0.509,0.544,0.767,0.814c0.341,0.356,0.687,0.707,1.032,1.057c0.298,0.303,0.595,0.604,0.896,0.903
		c0.307,0.304,0.617,0.604,0.927,0.905c0.367,0.355,0.737,0.708,1.109,1.059c0.247,0.233,0.494,0.464,0.745,0.693
		c0.474,0.437,0.953,0.872,1.436,1.301c0.15,0.134,0.301,0.268,0.452,0.401c18.931,16.676,43.755,26.81,70.905,26.813
		c0.004,0,0.009,0,0.013,0l0,0c0.004,0,0.009,0,0.013,0c2.912,0,5.792-0.136,8.646-0.365
		C240.877,361.158,219.248,351.505,202.332,336.603z"/>
</g>
<g>
	<path style="fill:#ff4f00;" d="M377.351,117.656c-15.97,0-28.961,12.991-28.961,28.961c0,15.969,12.991,28.96,28.961,28.96
		c15.97,0,28.961-12.991,28.961-28.96C406.312,130.648,393.321,117.656,377.351,117.656z"/>
	<path style="fill:#ff4f00;" d="M138.584,340.315c-15.969,0-28.961,12.991-28.961,28.96c0,15.969,12.991,28.959,28.961,28.959
		c15.969,0,28.96-12.991,28.96-28.959C167.544,353.307,154.552,340.315,138.584,340.315z"/>
</g>
<g>
	<path style="opacity:0.1;fill:#ff4f00;enable-background:new    ;" d="M366.199,146.618c0-12.863,8.432-23.789,20.057-27.554
		c-2.807-0.909-5.798-1.407-8.904-1.407c-15.97,0-28.961,12.991-28.961,28.961c0,15.969,12.991,28.96,28.961,28.96
		c3.107,0,6.097-0.496,8.904-1.407C374.632,170.405,366.199,159.48,366.199,146.618z"/>
	<path style="opacity:0.1;fill:#ff4f00;enable-background:new    ;" d="M127.431,369.277c0-12.863,8.431-23.788,20.056-27.553
		c-2.807-0.909-5.798-1.407-8.904-1.407c-15.969,0-28.961,12.991-28.961,28.96c0,15.969,12.991,28.959,28.961,28.959
		c3.107,0,6.097-0.497,8.904-1.407C135.863,393.064,127.431,382.139,127.431,369.277z"/>
</g>
<g>
	<path style="fill:#ff4f00;" d="M256,482.921c-4.61,0-8.348-3.738-8.348-8.348V37.427c0-4.61,3.738-8.348,8.348-8.348
		s8.348,3.738,8.348,8.348v437.146C264.348,479.183,260.61,482.921,256,482.921z"/>
	<path style="fill:#ff4f00;" d="M474.573,264.348H37.427c-4.61,0-8.348-3.738-8.348-8.348s3.738-8.348,8.348-8.348h437.146
		c4.611,0,8.348,3.738,8.348,8.348S479.184,264.348,474.573,264.348z"/>
</g>
<g>
</g>
<g>
</g>
<g>
</g>
<g>
</g>
<g>
</g>
<g>
</g>
<g>
</g>
<g>
</g>
<g>
</g>
<g>
</g>
<g>
</g>
<g>
</g>
<g>
</g>
<g>
</g>
<g>
</g>
</svg>
